<?xml version="1.0" encoding="UTF-8" standalone="no"?>
<!-- Created with Inkscape (http://www.inkscape.org/) -->

<svg
   xmlns:dc="http://purl.org/dc/elements/1.1/"
   xmlns:cc="http://creativecommons.org/ns#"
   xmlns:rdf="http://www.w3.org/1999/02/22-rdf-syntax-ns#"
   xmlns:svg="http://www.w3.org/2000/svg"
   xmlns="http://www.w3.org/2000/svg"
   xmlns:sodipodi="http://sodipodi.sourceforge.net/DTD/sodipodi-0.dtd"
   xmlns:inkscape="http://www.inkscape.org/namespaces/inkscape"
   width="64mm"
   height="64mm"
   viewBox="0 0 64 64"
   version="1.1"
   id="svg8"
   inkscape:version="0.92.4 (5da689c313, 2019-01-14)"
   sodipodi:docname="nArco.svg">
  <defs
     id="defs2" />
  <sodipodi:namedview
     id="base"
     pagecolor="#ffffff"
     bordercolor="#666666"
     borderopacity="1.0"
     inkscape:pageopacity="0.0"
     inkscape:pageshadow="2"
     inkscape:zoom="0.35"
     inkscape:cx="-292.59841"
     inkscape:cy="691.85533"
     inkscape:document-units="mm"
     inkscape:current-layer="layer1"
     showgrid="false"
     inkscape:window-width="1920"
     inkscape:window-height="1020"
     inkscape:window-x="0"
     inkscape:window-y="31"
     inkscape:window-maximized="1" />
  <metadata
     id="metadata5">
    <rdf:RDF>
      <cc:Work
         rdf:about="">
        <dc:format>image/svg+xml</dc:format>
        <dc:type
           rdf:resource="http://purl.org/dc/dcmitype/StillImage" />
        <dc:title></dc:title>
      </cc:Work>
    </rdf:RDF>
  </metadata>
  <g
     inkscape:label="Layer 1"
     inkscape:groupmode="layer"
     id="layer1"
     transform="translate(0,-233)">
    <g
       id="g1125"
       transform="translate(2.2867634,406.42406)">
      <circle
         r="26.080357"
         cy="-141.3203"
         cx="30.805058"
         id="circle1048"
         style="fill:#000000;fill-opacity:1;stroke:#cccccc;stroke-width:1;stroke-opacity:1" />
      <path
         style="fill:#adadad;stroke:#adadad;stroke-width:0.75754869px;stroke-linecap:butt;stroke-linejoin:miter;stroke-opacity:1"
         d="m 39.473293,-119.4366 c 3.152946,-2.41218 0.861354,-4.48354 -0.990352,-4.90631 -0.561438,-2.68012 -0.602869,-5.21919 1.15439,-7.27124 2.582008,-4.20877 0.200638,-7.72583 -2.671703,-10.5011 -3.468525,-0.38543 -2.473295,-2.54871 -2.395442,-4.34663 0.101864,-4.78622 -3.211772,-7.06907 -5.959984,-9.69939 -2.119057,-0.34462 -4.189634,-1.74649 -6.2409,-3.57045 0.607173,-1.35907 1.795562,-2.92444 0.126468,-3.47557 -8.486153,1.86572 0.378982,9.24548 -0.0108,8.83444 3.225232,1.26852 5.503739,3.27607 7.464768,5.5315 0.366328,1.236 1.814382,1.48507 0.802978,3.97803 0.08847,1.97191 -0.721461,3.94543 2.849255,5.91113 4.412006,0.74774 2.559961,3.31248 3.245808,5.14105 -2.13178,3.78867 -1.357431,7.47843 -1.465742,11.19821 0.700127,2.28626 2.051271,3.36857 4.091258,3.17633 z"
         id="path1110"
         inkscape:connector-curvature="0"
         sodipodi:nodetypes="ccccccccccccccc" />
      <path
         style="fill:#adadad;stroke:#adadad;stroke-width:0.75754869px;stroke-linecap:butt;stroke-linejoin:miter;stroke-opacity:1"
         d="m 11.546287,-129.25601 6.547371,-3.11564 0.154436,-2.65329 22.637152,-10.91762 2.734807,1.24203 c 0,0 9.829486,-7.36626 8.768658,-7.15213 l -11.005968,2.22159 -0.97685,2.68122 -22.902322,10.97112 -2.867412,-1.21524 -5.9901831,3.14121 3.2396761,1.69215 z"
         id="path1112"
         inkscape:connector-curvature="0"
         sodipodi:nodetypes="cccccsccccccc" />
      <path
         style="fill:none;stroke:#adadad;stroke-width:0.75754869px;stroke-linecap:butt;stroke-linejoin:miter;stroke-opacity:1"
         d="M 39.473293,-119.4366 11.885652,-132.36061 22.49577,-163.20729"
         id="path1114"
         inkscape:connector-curvature="0" />
    </g>
  </g>
</svg>
