<?xml version="1.0" encoding="UTF-8" standalone="no"?>
<!-- Created with Inkscape (http://www.inkscape.org/) -->

<svg
   xmlns:dc="http://purl.org/dc/elements/1.1/"
   xmlns:cc="http://creativecommons.org/ns#"
   xmlns:rdf="http://www.w3.org/1999/02/22-rdf-syntax-ns#"
   xmlns:svg="http://www.w3.org/2000/svg"
   xmlns="http://www.w3.org/2000/svg"
   xmlns:sodipodi="http://sodipodi.sourceforge.net/DTD/sodipodi-0.dtd"
   xmlns:inkscape="http://www.inkscape.org/namespaces/inkscape"
   width="64mm"
   height="64mm"
   viewBox="0 0 64 64"
   version="1.1"
   id="svg8"
   inkscape:version="0.92.4 (5da689c313, 2019-01-14)"
   sodipodi:docname="rArco.svg">
  <defs
     id="defs2" />
  <sodipodi:namedview
     id="base"
     pagecolor="#ffffff"
     bordercolor="#666666"
     borderopacity="1.0"
     inkscape:pageopacity="0.0"
     inkscape:pageshadow="2"
     inkscape:zoom="0.35"
     inkscape:cx="-292.59841"
     inkscape:cy="691.85533"
     inkscape:document-units="mm"
     inkscape:current-layer="layer1"
     showgrid="false"
     inkscape:window-width="1920"
     inkscape:window-height="1020"
     inkscape:window-x="0"
     inkscape:window-y="31"
     inkscape:window-maximized="1" />
  <metadata
     id="metadata5">
    <rdf:RDF>
      <cc:Work
         rdf:about="">
        <dc:format>image/svg+xml</dc:format>
        <dc:type
           rdf:resource="http://purl.org/dc/dcmitype/StillImage" />
        <dc:title></dc:title>
      </cc:Work>
    </rdf:RDF>
  </metadata>
  <g
     inkscape:label="Layer 1"
     inkscape:groupmode="layer"
     id="layer1"
     transform="translate(0,-233)">
    <g
       id="g4666"
       transform="translate(282.19702,97.820239)">
      <circle
         style="fill:#ff0000;fill-opacity:1;stroke:#d4aa00;stroke-width:1;stroke-opacity:1"
         id="circle1050"
         cx="-248.99182"
         cy="168.15286"
         r="26.080357" />
      <path
         sodipodi:nodetypes="ccccccccccccccc"
         inkscape:connector-curvature="0"
         id="path1186"
         d="m -240.45897,190.22555 c 3.15295,-2.41218 0.86136,-4.48354 -0.99035,-4.90631 -0.56144,-2.68012 -0.60287,-5.21919 1.15439,-7.27124 2.58201,-4.20877 0.20064,-7.72583 -2.6717,-10.5011 -3.46853,-0.38543 -2.4733,-2.54871 -2.39544,-4.34663 0.10186,-4.78622 -3.21177,-7.06907 -5.95999,-9.69939 -2.11905,-0.34462 -4.18963,-1.74649 -6.2409,-3.57045 0.60718,-1.35907 1.79557,-2.92444 0.12647,-3.47557 -8.48615,1.86572 0.37898,9.24548 -0.0108,8.83444 3.22523,1.26852 5.50374,3.27607 7.46477,5.5315 0.36633,1.236 1.81438,1.48507 0.80298,3.97803 0.0885,1.97191 -0.72146,3.94543 2.84925,5.91113 4.41201,0.74774 2.55996,3.31248 3.24581,5.14105 -2.13178,3.78867 -1.35743,7.47843 -1.46574,11.19821 0.70013,2.28626 2.05127,3.36857 4.09126,3.17633 z"
         style="fill:#d4aa00;stroke:#d4aa00;stroke-width:0.75754869px;stroke-linecap:butt;stroke-linejoin:miter;stroke-opacity:1" />
      <path
         sodipodi:nodetypes="cccccsccccccc"
         inkscape:connector-curvature="0"
         id="path1188"
         d="m -268.38597,180.40614 6.54737,-3.11564 0.15444,-2.65329 22.63715,-10.91762 2.7348,1.24203 c 0,0 9.82949,-7.36626 8.76866,-7.15213 l -11.00597,2.22159 -0.97685,2.68122 -22.90232,10.97112 -2.86741,-1.21524 -5.99018,3.14121 3.23967,1.69215 z"
         style="fill:#d4aa00;fill-opacity:1;stroke:#d4aa00;stroke-width:0.75754869px;stroke-linecap:butt;stroke-linejoin:miter;stroke-opacity:1" />
      <path
         inkscape:connector-curvature="0"
         id="path1190"
         d="m -240.45897,190.22555 -27.58764,-12.92401 10.61012,-30.84668"
         style="fill:none;stroke:#d4aa00;stroke-width:0.75754869px;stroke-linecap:butt;stroke-linejoin:miter;stroke-opacity:1" />
    </g>
  </g>
</svg>
