<?xml version="1.0" encoding="UTF-8" standalone="no"?>
<!-- Created with Inkscape (http://www.inkscape.org/) -->

<svg
   xmlns:dc="http://purl.org/dc/elements/1.1/"
   xmlns:cc="http://creativecommons.org/ns#"
   xmlns:rdf="http://www.w3.org/1999/02/22-rdf-syntax-ns#"
   xmlns:svg="http://www.w3.org/2000/svg"
   xmlns="http://www.w3.org/2000/svg"
   xmlns:sodipodi="http://sodipodi.sourceforge.net/DTD/sodipodi-0.dtd"
   xmlns:inkscape="http://www.inkscape.org/namespaces/inkscape"
   width="64mm"
   height="64mm"
   viewBox="0 0 64 64"
   version="1.1"
   id="svg8"
   inkscape:version="0.92.4 (5da689c313, 2019-01-14)"
   sodipodi:docname="rCaballeriaL.svg">
  <defs
     id="defs2" />
  <sodipodi:namedview
     id="base"
     pagecolor="#ffffff"
     bordercolor="#666666"
     borderopacity="1.0"
     inkscape:pageopacity="0.0"
     inkscape:pageshadow="2"
     inkscape:zoom="0.35"
     inkscape:cx="-302.59841"
     inkscape:cy="701.85533"
     inkscape:document-units="mm"
     inkscape:current-layer="layer1"
     showgrid="false"
     inkscape:window-width="1600"
     inkscape:window-height="840"
     inkscape:window-x="0"
     inkscape:window-y="0"
     inkscape:window-maximized="1" />
  <metadata
     id="metadata5">
    <rdf:RDF>
      <cc:Work
         rdf:about="">
        <dc:format>image/svg+xml</dc:format>
        <dc:type
           rdf:resource="http://purl.org/dc/dcmitype/StillImage" />
        <dc:title></dc:title>
      </cc:Work>
    </rdf:RDF>
  </metadata>
  <g
     inkscape:label="Layer 1"
     inkscape:groupmode="layer"
     id="layer1"
     transform="translate(0,-233)">
    <g
       id="g1265"
       transform="translate(74.026637,172.53239)">
      <circle
         style="fill:#ff0000;fill-opacity:1;stroke:#d4aa00;stroke-width:1;stroke-opacity:1"
         id="circle148"
         cx="-40.82143"
         cy="93.049995"
         r="26.080357" />
      <path
         style="fill:none;stroke:#d4aa00;stroke-width:2;stroke-linecap:butt;stroke-linejoin:miter;stroke-opacity:1"
         d="m -39.092437,69.804741 c -0.344778,1.09375 -0.618415,2.155884 -0.521284,3.053228 -0.04193,0.584366 0.0212,1.238728 -0.297871,1.638316 2.48158,2.602827 4.690949,3.844586 6.776677,4.46814 1.162971,6.233319 6.320354,8.716657 8.787331,10.053305 -0.797199,2.012294 0.261895,2.963863 0.744689,4.244731 -1.451464,1.39391 -2.423427,1.10957 -3.500041,1.191507 -1.493051,0.04208 -1.044963,0.812055 -1.04256,1.414913 -0.914765,1.033481 -2.018606,-0.01292 -3.127696,-1.117034 -1.359637,-2.72438 -2.212616,-2.662169 -3.20217,-3.351109 -5.644875,0.186893 -8.599918,0.479137 -10.872468,-4.617075 -1.550297,-3.447539 -0.05193,-8.118039 2.755352,-12.06397 -0.659135,-2.86339 1.645805,-3.963855 3.500041,-4.914952 z"
         id="path179"
         inkscape:connector-curvature="0"
         sodipodi:nodetypes="ccccccccccccc" />
      <path
         style="fill:#d4aa00;stroke:#d4aa00;stroke-width:0.20851308px;stroke-linecap:butt;stroke-linejoin:miter;stroke-opacity:1"
         d="m -44.826546,75.836728 c -2.393496,3.800356 -5.235655,8.91367 -0.372344,14.521449 0.977898,1.871898 3.828205,2.853311 6.031987,7.968177 -1.424377,-2.159602 -3.74147,-4.319196 -6.553272,-6.478798 -2.572335,-1.875026 -7.334803,-7.518876 -1.191499,-15.26614 z"
         id="path181"
         inkscape:connector-curvature="0"
         sodipodi:nodetypes="cccccc" />
      <path
         style="fill:#d4aa00;stroke:#d4aa00;stroke-width:0.20851308px;stroke-linecap:butt;stroke-linejoin:miter;stroke-opacity:1"
         d="m -49.220216,77.475046 -2.308533,1.191502 c -3.118444,3.634991 -3.39302,9.831861 3.723446,15.340602 3.151568,2.97644 7.241802,4.746013 9.159676,9.30862 0.71516,-1.38863 -3.606164,-6.391554 -7.893703,-9.829896 -7.874,-6.923394 -4.836035,-13.088015 -2.680886,-16.010828 z"
         id="path183"
         inkscape:connector-curvature="0"
         sodipodi:nodetypes="cccccc" />
      <path
         style="fill:#d4aa00;stroke:#d4aa00;stroke-width:0.20851308px;stroke-linecap:butt;stroke-linejoin:miter;stroke-opacity:1"
         d="m -54.730919,81.570838 -1.265973,0.968094 c -2.582865,5.548193 1.77598,11.023953 5.808582,14.223578 7.415204,4.68769 12.441324,10.57423 13.851225,15.86189 0.322758,-5.54991 -4.202048,-9.70314 -9.680968,-14.96827 -8.630307,-5.954109 -9.911892,-11.894829 -8.712866,-16.085292 z"
         id="path185"
         inkscape:connector-curvature="0"
         sodipodi:nodetypes="cccccc" />
      <path
         style="fill:#d4aa00;stroke:#d4aa00;stroke-width:0.20851308px;stroke-linecap:butt;stroke-linejoin:miter;stroke-opacity:1"
         d="m -58.528839,86.858136 -0.968094,1.861723 c -0.631048,7.236578 7.414518,11.626601 8.04265,12.436311 7.073373,4.37925 11.251093,7.38159 14.223569,15.93636 -0.72732,-6.39124 -4.683723,-11.02115 -9.755434,-15.04273 -7.35616,-4.444722 -12.008494,-10.519817 -11.542691,-15.191664 z"
         id="path187"
         inkscape:connector-curvature="0"
         sodipodi:nodetypes="cccccc" />
      <path
         style="fill:#d4aa00;fill-opacity:1;stroke:#d4aa00;stroke-width:0.20851308px;stroke-linecap:butt;stroke-linejoin:miter;stroke-opacity:1"
         d="m -60.762899,94.379502 c 1.782419,4.904441 3.208798,5.689928 8.765525,9.199558 1.361741,0.86504 6.761396,2.72815 9.404896,7.40702 -3.035743,-3.09419 -6.717429,-4.89697 -10.723528,-6.70221 -1.467328,-0.89562 -6.407643,-1.95094 -7.704887,-7.02189 z"
         id="path189"
         inkscape:connector-curvature="0"
         sodipodi:nodetypes="cccccc" />
      <ellipse
         ry="0.42001161"
         rx="0.43295258"
         cx="-35.946335"
         cy="81.221405"
         id="ellipse191"
         style="fill:#d4aa00;fill-opacity:1;stroke:#d4aa00;stroke-width:1.64340723;stroke-opacity:1" />
    </g>
  </g>
</svg>
