<?xml version="1.0" encoding="UTF-8" standalone="no"?>
<!-- Created with Inkscape (http://www.inkscape.org/) -->

<svg
   xmlns:dc="http://purl.org/dc/elements/1.1/"
   xmlns:cc="http://creativecommons.org/ns#"
   xmlns:rdf="http://www.w3.org/1999/02/22-rdf-syntax-ns#"
   xmlns:svg="http://www.w3.org/2000/svg"
   xmlns="http://www.w3.org/2000/svg"
   xmlns:sodipodi="http://sodipodi.sourceforge.net/DTD/sodipodi-0.dtd"
   xmlns:inkscape="http://www.inkscape.org/namespaces/inkscape"
   width="64mm"
   height="64mm"
   viewBox="0 0 64 64"
   version="1.1"
   id="svg8"
   inkscape:version="0.92.4 (5da689c313, 2019-01-14)"
   sodipodi:docname="rCastillo.svg">
  <defs
     id="defs2" />
  <sodipodi:namedview
     id="base"
     pagecolor="#ffffff"
     bordercolor="#666666"
     borderopacity="1.0"
     inkscape:pageopacity="0.0"
     inkscape:pageshadow="2"
     inkscape:zoom="0.35"
     inkscape:cx="-302.59841"
     inkscape:cy="701.85533"
     inkscape:document-units="mm"
     inkscape:current-layer="layer1"
     showgrid="false"
     inkscape:window-width="1600"
     inkscape:window-height="840"
     inkscape:window-x="0"
     inkscape:window-y="0"
     inkscape:window-maximized="1" />
  <metadata
     id="metadata5">
    <rdf:RDF>
      <cc:Work
         rdf:about="">
        <dc:format>image/svg+xml</dc:format>
        <dc:type
           rdf:resource="http://purl.org/dc/dcmitype/StillImage" />
        <dc:title></dc:title>
      </cc:Work>
    </rdf:RDF>
  </metadata>
  <g
     inkscape:label="Layer 1"
     inkscape:groupmode="layer"
     id="layer1"
     transform="translate(0,-233)">
    <g
       id="g232"
       transform="translate(73.27069,-3.0753424)">
      <circle
         r="26.080357"
         cy="267.89584"
         cx="-40.82143"
         id="path142"
         style="fill:#ff0000;fill-opacity:1;stroke:#d4aa00;stroke-width:1;stroke-opacity:1" />
      <g
         transform="matrix(0.41680466,0,0,0.41680466,-64.38616,151.39663)"
         id="g140">
        <path
           style="fill:#d4aa00;stroke:#d4aa00;stroke-width:0.26458332px;stroke-linecap:butt;stroke-linejoin:miter;stroke-opacity:1"
           d="m 29.399648,289.65009 9.621702,-7.34992 1.870887,-4.2763 c -1.838087,-5.04484 0.450578,-9.26432 2.004521,-13.63075 l -0.668174,-20.17885 -6.949006,-0.26727 -2.405427,4.54358 8.151719,0.13363 -7.216274,1.60362 0.400902,17.50616 5.345392,1.20271 -5.345392,-0.13364 c -0.600927,2.53992 -1.165589,5.15237 -2.80633,5.61266 l 1.202714,1.73726 3.073598,0.80179 -4.142676,0.53454 z"
           id="path150"
           inkscape:connector-curvature="0"
           sodipodi:nodetypes="ccccccccccccccccc" />
        <path
           style="fill:#d4aa00;stroke:#d4aa00;stroke-width:0.26458332px;stroke-linecap:butt;stroke-linejoin:miter;stroke-opacity:1"
           d="m 21.648831,309.82893 4.677217,3.34087 c -0.314264,-5.83539 0.76809,-11.67077 2.004522,-17.50616 l -0.218632,-8.99335 c 0.06292,-0.84012 -1.225404,-1.3052 -1.682594,-0.299 l -1.439644,5.81784 -2.271791,0.93547 c 0.02801,7.48996 -0.385323,12.7732 -1.069078,16.70433 z"
           id="path152"
           inkscape:connector-curvature="0"
           sodipodi:nodetypes="cccccccc" />
        <path
           style="fill:#d4aa00;stroke:#d4aa00;stroke-width:0.26458332px;stroke-linecap:butt;stroke-linejoin:miter;stroke-opacity:1"
           d="m 12.945684,310.89063 6.803572,-1.8899 1.606398,-5.76413 -1.039434,-1.79538 -2.456845,1.79538 -2.929316,4.25222 2.173363,-5.38615 -1.606399,-0.47246 z"
           id="path154"
           inkscape:connector-curvature="0" />
        <path
           style="fill:#d4aa00;stroke:#d4aa00;stroke-width:0.26458332px;stroke-linecap:butt;stroke-linejoin:miter;stroke-opacity:1"
           d="m 16.725446,311.83556 -3.779762,6.33111 -2.078869,0.94493 c -1.6615392,-1.79538 -3.259365,-3.59077 -3.6852675,-5.38615 3.1812995,-1.06368 6.3625985,-1.57839 9.5438985,-1.88989 z"
           id="path156"
           inkscape:connector-curvature="0"
           sodipodi:nodetypes="ccccc" />
        <path
           style="fill:#d4aa00;stroke:#d4aa00;stroke-width:0.26458332px;stroke-linecap:butt;stroke-linejoin:miter;stroke-opacity:1"
           d="m 45.262649,265.25 4.91369,-1.88988 3.02381,-15.11905 V 234.42552 H 42.82994 v 11.69304 z"
           id="path158"
           inkscape:connector-curvature="0" />
        <path
           style="fill:#d4aa00;stroke:#d4aa00;stroke-width:0.26458332px;stroke-linecap:butt;stroke-linejoin:miter;stroke-opacity:1"
           d="m 61.605625,266.13038 -3.073599,-2.50566 -4.309721,-13.69757 -0.30068,-6.1472 8.786487,-2.7061 v 19.41045 l 1.035669,-0.66818 1.135896,-17.90705 1.302938,-2.50566 1.603618,-0.10022 -1.269531,-2.93997 3.474505,0.0668 0.23386,22.14996 0.567947,-0.10022 0.467722,-23.78699 -1.202714,-2.97337 h 9.321025 v 32.17256 l -2.605876,-2.60587 c -0.968852,-0.20014 -1.937704,-0.71622 -2.906556,0 -3.241553,0.10784 -5.322992,1.6922 -7.635792,2.98209 l -1.752051,-0.77713 z"
           id="path160"
           inkscape:connector-curvature="0"
           sodipodi:nodetypes="ccccccccccccccccccccccc" />
        <path
           style="fill:#d4aa00;stroke:#d4aa00;stroke-width:0.26458332px;stroke-linecap:butt;stroke-linejoin:miter;stroke-opacity:1"
           d="m 81.170385,265.62798 -4.819195,-2.36236 -4.441222,-0.18899 -4.346726,2.64584 -0.661458,2.26785 2.267858,3.87426 14.835565,7.65403 7.654018,10.29983 3.307291,0.2835 -4.441219,-15.11906 z"
           id="path162"
           inkscape:connector-curvature="0" />
        <path
           style="fill:#d4aa00;stroke:#d4aa00;stroke-width:0.26458332px;stroke-linecap:butt;stroke-linejoin:miter;stroke-opacity:1"
           d="m 88.635416,301.72469 1.700892,-6.89806 7.276042,-2.83482 3.1183,-5.95313 5.38616,3.4018 5.38616,9.82737 -3.0238,6.80357 -3.02381,-1.88989 -12.189736,0.2835 z"
           id="path164"
           inkscape:connector-curvature="0" />
        <path
           style="fill:#d4aa00;stroke:#d4aa00;stroke-width:0.26458332px;stroke-linecap:butt;stroke-linejoin:miter;stroke-opacity:1"
           d="m 47.43601,332.62424 4.630208,-6.70907 3.02381,-1.13392 12.85119,0.47247 -9.732885,-1.98438 2.078868,-1.98437 3.874257,-0.189 8.693451,-0.0945 -6.425594,-1.51191 2.645833,-3.02381 6.425594,-1.7009 23.623511,0.0945 -14.646577,-1.41742 2.078871,-2.45684 6.331101,-3.30729 11.906252,0.56697 2.17336,1.60639 c -6.21894,9.23996 -13.318661,17.92943 -25.513393,23.43452 z"
           id="path166"
           inkscape:connector-curvature="0"
           sodipodi:nodetypes="ccccccccccccccccccc" />
        <path
           style="fill:#ff0000;stroke:#ff0000;stroke-width:0.26458332px;stroke-linecap:butt;stroke-linejoin:miter;stroke-opacity:1"
           d="m 73.516367,235.29538 v 4.15774 h 1.842635 v -4.11049 z"
           id="path168"
           inkscape:connector-curvature="0" />
        <path
           inkscape:connector-curvature="0"
           id="path170"
           d="m 65.720608,242.71316 v 4.15774 h 1.842635 v -4.11049 z"
           style="fill:#ff0000;stroke:#ff0000;stroke-width:0.26458332px;stroke-linecap:butt;stroke-linejoin:miter;stroke-opacity:1" />
        <path
           style="fill:#ff0000;stroke:#ff0000;stroke-width:0.26458332px;stroke-linecap:butt;stroke-linejoin:miter;stroke-opacity:1"
           d="m 59.200519,244.31956 v 4.15774 h 1.842635 v -4.11049 z"
           id="path172"
           inkscape:connector-curvature="0" />
        <path
           inkscape:connector-curvature="0"
           id="path174"
           d="m 55.326263,244.31956 v 4.15774 h 1.842635 v -4.11049 z"
           style="fill:#ff0000;stroke:#ff0000;stroke-width:0.26458332px;stroke-linecap:butt;stroke-linejoin:miter;stroke-opacity:1" />
        <path
           inkscape:connector-curvature="0"
           id="path176"
           d="m 48.758927,237.75222 v 4.15774 h 1.842635 v -4.11049 z"
           style="fill:#ff0000;stroke:#ff0000;stroke-width:0.26458332px;stroke-linecap:butt;stroke-linejoin:miter;stroke-opacity:1" />
        <path
           style="fill:#ff0000;stroke:#ff0000;stroke-width:0.26458332px;stroke-linecap:butt;stroke-linejoin:miter;stroke-opacity:1"
           d="m 44.884671,237.75222 v 4.15774 h 1.842635 v -4.11049 z"
           id="path178"
           inkscape:connector-curvature="0" />
        <path
           style="fill:#ff0000;stroke:#ff0000;stroke-width:0.26458332px;stroke-linecap:butt;stroke-linejoin:miter;stroke-opacity:1"
           d="m 37.657308,250.86488 v 4.15774 h 1.842635 v -4.11049 z"
           id="path180"
           inkscape:connector-curvature="0" />
        <path
           style="fill:none;stroke:#d4aa00;stroke-width:0.26458332px;stroke-linecap:butt;stroke-linejoin:miter;stroke-opacity:1"
           d="m 70.05802,231.7194 -0.06681,4.71062"
           id="path182"
           inkscape:connector-curvature="0" />
        <path
           style="fill:none;stroke:#d4aa00;stroke-width:0.26458332px;stroke-linecap:butt;stroke-linejoin:miter;stroke-opacity:1"
           d="m 66.516702,236.36322 v 2.97338"
           id="path184"
           inkscape:connector-curvature="0" />
        <path
           style="fill:none;stroke:#d4aa00;stroke-width:0.26458332px;stroke-linecap:butt;stroke-linejoin:miter;stroke-opacity:1"
           d="m 66.182615,239.40341 h -2.873148 v 1.63703 h -9.521475 v 2.7061"
           id="path186"
           inkscape:connector-curvature="0" />
        <path
           style="fill:none;stroke:#d4aa00;stroke-width:0.26458332px;stroke-linecap:butt;stroke-linejoin:miter;stroke-opacity:1"
           d="m 53.787992,241.04044 c 0.441699,-0.95959 0.904488,-1.90863 2.739511,-2.17156 -0.0202,-0.47756 0.17569,-1.08811 1.302941,-2.2718 v -1.60361 h 0.300678 v 1.5702 c 0.937509,0.60663 1.434325,1.40912 1.570207,2.37202 1.7169,0.0934 2.62484,0.88783 3.006783,2.13816"
           id="path188"
           inkscape:connector-curvature="0"
           sodipodi:nodetypes="cccccccc" />
        <path
           style="fill:none;stroke:#d4aa00;stroke-width:0.26458332px;stroke-linecap:butt;stroke-linejoin:miter;stroke-opacity:1"
           d="m 43.865612,234.32529 1.570206,-2.60587 2.33861,-0.0334 v -2.07134 h 0.23386 v 2.07134 h 2.539061 l 1.469982,2.77292"
           id="path190"
           inkscape:connector-curvature="0" />
        <path
           style="fill:#d4aa00;stroke:#d4aa00;stroke-width:0.26458332px;stroke-linecap:butt;stroke-linejoin:miter;stroke-opacity:1"
           d="m 47.774428,229.61468 -0.06682,-2.50566 c 1.099838,-1.09981 2.331106,-0.95104 3.608139,-0.3675 0.149357,2.1933 1.056021,0.71963 1.670434,0.93544 0.470411,-0.27857 1.116554,0.43169 1.80407,0.93545 l -0.868628,2.07134 c -0.268179,-0.64193 -0.687567,-1.178 -1.837476,-1.20272 -0.847512,0.95474 -1.219364,0.38737 -1.637027,-0.0334 -0.287571,-1.15097 -1.647032,-0.15816 -2.672692,0.16705 z"
           id="path192"
           inkscape:connector-curvature="0"
           sodipodi:nodetypes="ccccccccc" />
        <path
           sodipodi:nodetypes="ccccccccc"
           inkscape:connector-curvature="0"
           id="path194"
           d="m 74.668424,229.51445 -0.06682,-2.50566 c 1.099838,-1.09981 2.331106,-0.95104 3.608139,-0.3675 0.149357,2.1933 1.056021,0.71963 1.670434,0.93544 0.470411,-0.27857 1.116554,0.43169 1.80407,0.93545 l -0.868628,2.07134 c -0.268179,-0.64193 -0.687567,-1.178 -1.837476,-1.20272 -0.847512,0.95474 -1.219364,0.38737 -1.637027,-0.0334 -0.287571,-1.15097 -1.647032,-0.15816 -2.672692,0.16705 z"
           style="fill:#d4aa00;stroke:#d4aa00;stroke-width:0.26458332px;stroke-linecap:butt;stroke-linejoin:miter;stroke-opacity:1" />
        <path
           style="fill:none;stroke:#d4aa00;stroke-width:0.26458332px;stroke-linecap:butt;stroke-linejoin:miter;stroke-opacity:1"
           d="m 74.668424,229.51445 v 2.20497"
           id="path196"
           inkscape:connector-curvature="0" />
        <path
           style="fill:#d4aa00;stroke:#d4aa00;stroke-width:0.26458332px;stroke-linecap:butt;stroke-linejoin:miter;stroke-opacity:1"
           d="m 34.745038,300.47451 7.082642,-10.28989 18.040693,-7.21627 12.294399,4.6772 2.539058,2.53907 6.1472,6.5481 4.409948,2.80633 -1.737252,-11.75986 -3.34087,-8.28535 -13.630745,-6.81537 -8.686261,-5.87994 -4.00904,-1.87087 -4.409948,1.87087 -4.944486,3.07361 -1.069078,9.48806 -4.009043,7.88445 -4.944486,6.68174 z"
           id="path110"
           inkscape:connector-curvature="0" />
        <path
           style="fill:none;stroke:#d4aa00;stroke-width:0.26458332px;stroke-linecap:butt;stroke-linejoin:miter;stroke-opacity:1"
           d="m 33.809596,250.22783 v -1.79777"
           id="path112"
           inkscape:connector-curvature="0" />
      </g>
    </g>
  </g>
</svg>
