<?xml version="1.0" encoding="UTF-8" standalone="no"?>
<!-- Created with Inkscape (http://www.inkscape.org/) -->

<svg
   xmlns:dc="http://purl.org/dc/elements/1.1/"
   xmlns:cc="http://creativecommons.org/ns#"
   xmlns:rdf="http://www.w3.org/1999/02/22-rdf-syntax-ns#"
   xmlns:svg="http://www.w3.org/2000/svg"
   xmlns="http://www.w3.org/2000/svg"
   xmlns:sodipodi="http://sodipodi.sourceforge.net/DTD/sodipodi-0.dtd"
   xmlns:inkscape="http://www.inkscape.org/namespaces/inkscape"
   width="64mm"
   height="64mm"
   viewBox="0 0 64 64"
   version="1.1"
   id="svg8"
   inkscape:version="0.92.4 (5da689c313, 2019-01-14)"
   sodipodi:docname="rDragon.svg">
  <defs
     id="defs2" />
  <sodipodi:namedview
     id="base"
     pagecolor="#ffffff"
     bordercolor="#666666"
     borderopacity="1.0"
     inkscape:pageopacity="0.0"
     inkscape:pageshadow="2"
     inkscape:zoom="0.35"
     inkscape:cx="-302.59841"
     inkscape:cy="701.85533"
     inkscape:document-units="mm"
     inkscape:current-layer="layer1"
     showgrid="false"
     inkscape:window-width="1600"
     inkscape:window-height="840"
     inkscape:window-x="0"
     inkscape:window-y="0"
     inkscape:window-maximized="1" />
  <metadata
     id="metadata5">
    <rdf:RDF>
      <cc:Work
         rdf:about="">
        <dc:format>image/svg+xml</dc:format>
        <dc:type
           rdf:resource="http://purl.org/dc/dcmitype/StillImage" />
        <dc:title></dc:title>
      </cc:Work>
    </rdf:RDF>
  </metadata>
  <g
     inkscape:label="Layer 1"
     inkscape:groupmode="layer"
     id="layer1"
     transform="translate(0,-233)">
    <g
       id="g236"
       transform="translate(73.346287,53.469895)">
      <circle
         style="fill:#ff0000;fill-opacity:1;stroke:#d4aa00;stroke-width:1;stroke-opacity:1"
         id="circle178"
         cx="-40.82143"
         cy="211.95537"
         r="26.080357" />
      <path
         sodipodi:nodetypes="ccccccccccccccccccccccccccccccccccccccccccccccccccccccccccc"
         inkscape:connector-curvature="0"
         id="path109"
         d="m -65.190023,214.23955 c 4.857759,-3.7001 9.799862,-3.39619 12.448502,-1.0559 2.176477,-1.75537 5.30784,0.77476 6.279826,1.72278 0.477471,-3.28096 3.027084,-3.61339 4.334747,-3.55672 1.558878,0.57548 1.450023,1.58583 1.722783,2.11181 0.486496,1.97696 1.125895,3.59715 1.833932,5.0572 1.286778,2.05385 0.824556,3.22411 0.277868,4.05688 -1.154149,1.21666 -2.317904,2.42949 -3.834583,3.50114 1.755955,-1.03531 3.410076,-2.05607 4.279172,-3.50114 0.763032,-0.79089 0.839798,-2.53245 0.222294,-4.39032 l -1.722783,-5.44622 c -0.04444,-0.27893 0.0241,-0.71544 0.61131,-0.27787 0.103604,0.5867 0.226027,1.06049 0.403311,1.20512 0.09975,0.20382 0.136148,0.4529 0.481382,0.48138 0.174549,0.095 0.380495,0.17657 0.432263,0.32419 l -0.02947,0.39297 c 0.08092,-0.0145 0.175734,-0.15383 0.275075,-0.33402 0.09576,0.15132 0.08986,0.53134 0.11789,0.83506 0.07767,-0.15797 0.16503,-0.23853 0.225955,-0.53051 0.04425,-0.0831 0.104482,-0.0224 0.16701,0.0589 0.05615,0.20807 0.04625,0.39961 0.02947,0.58945 0.07181,-0.0897 0.183752,-0.15258 0.206306,-0.27508 -0.01002,-0.15658 -0.02682,-0.29285 -0.01965,-0.50103 -0.03294,-0.36947 -0.318061,-0.4111 -0.520679,-0.55998 -0.05847,-0.13099 -0.09282,-0.26197 -0.275075,-0.39296 -0.08356,-0.0567 -0.166785,-0.11383 -0.304549,-0.0982 l -0.235779,0.01 c -0.318621,-0.0828 -0.258315,-0.3281 -0.343845,-0.51086 l -0.07859,-1.09047 c -0.05274,-0.29369 -0.131568,-0.59172 -0.294724,-0.90382 -0.148836,-0.29716 -0.369924,-0.55303 -0.648393,-0.77611 l 1.797817,-0.8547 c 2.011558,-0.41282 2.42141,0.80353 2.848996,1.18872 0.265511,-0.28663 1.100561,-3.64739 3.634929,-4.50927 1.01392,-3.31422 3.880431,-4.72093 5.265734,-5.00048 1.928753,-1.43404 3.629593,-1.53162 5.786415,-1.23784 -0.844878,-0.55543 -1.689756,-0.82421 -2.534629,-1.01189 -1.325861,-0.49493 -1.926163,-0.17428 -2.888293,-0.16701 l -2.072891,0.12772 c -1.440023,0.18472 -3.514135,1.89531 -5.257308,2.78739 l -6.252038,4.08466 c -0.24082,0.12262 -0.511112,0.13561 -0.751931,0.10133 l -0.680079,-0.12574 c -0.171023,-0.009 -0.342046,-0.17705 -0.513069,-0.44796 l -0.889179,-1.52828 -0.250082,-0.80581 -0.972539,-1.0837 c -0.260767,-0.33416 -0.547287,-0.17907 -0.833605,-0.0278 -0.627653,-0.0548 -0.707191,0.32575 -0.44459,0.8336 l 0.389017,0.66688 c 0.159132,0.1491 0.343179,0.17361 0.52795,0.19451 0.20312,0.12967 0.286442,0.25935 0.333441,0.38902 0.51767,0.77243 0.729154,1.40879 1.028113,2.08401 -0.04674,0.23898 0.03311,0.52399 -0.277868,0.66688 -0.122029,0.0959 -0.206642,0.1169 -0.250082,0.0555 -0.191843,-0.16464 -0.303128,-0.0927 -0.416803,-0.0278 -0.385389,0.54047 -0.755012,0.70761 -1.611636,0.72247 l -9.975474,0.77802 c -3.840713,0.67742 -6.421415,1.3235 -10.781292,6.00196 z"
         style="fill:#d4aa00;stroke:#d4aa00;stroke-width:0.91038942;stroke-linecap:butt;stroke-linejoin:miter;stroke-opacity:1" />
    </g>
  </g>
</svg>
